<?xml version="1.0" encoding="UTF-8" standalone="no"?>
<!-- Created with Inkscape (http://www.inkscape.org/) -->

<svg
   xmlns:dc="http://purl.org/dc/elements/1.1/"
   xmlns:cc="http://creativecommons.org/ns#"
   xmlns:rdf="http://www.w3.org/1999/02/22-rdf-syntax-ns#"
   xmlns:svg="http://www.w3.org/2000/svg"
   xmlns="http://www.w3.org/2000/svg"
   xmlns:sodipodi="http://sodipodi.sourceforge.net/DTD/sodipodi-0.dtd"
   xmlns:inkscape="http://www.inkscape.org/namespaces/inkscape"
   id="svg2985"
   version="1.1"
   inkscape:version="0.48.4 r9939"
   width="390"
   height="606"
   sodipodi:docname="BatteryIconFullSize.png"
   inkscape:export-filename="D:\SkyDrive\Project\Git\Battery's Big Brother\Art\IconImage0.png"
   inkscape:export-xdpi="30"
   inkscape:export-ydpi="30">
  <metadata
     id="metadata2991">
    <rdf:RDF>
      <cc:Work
         rdf:about="">
        <dc:format>image/svg+xml</dc:format>
        <dc:type
           rdf:resource="http://purl.org/dc/dcmitype/StillImage" />
        <dc:title></dc:title>
      </cc:Work>
    </rdf:RDF>
  </metadata>
  <defs
     id="defs2989" />
  <sodipodi:namedview
     pagecolor="#ffffff"
     bordercolor="#666666"
     borderopacity="1"
     objecttolerance="10"
     gridtolerance="10"
     guidetolerance="10"
     inkscape:pageopacity="0"
     inkscape:pageshadow="2"
     inkscape:window-width="1858"
     inkscape:window-height="1057"
     id="namedview2987"
     showgrid="false"
     inkscape:zoom="3.48"
     inkscape:cx="124.96138"
     inkscape:cy="355.23128"
     inkscape:window-x="54"
     inkscape:window-y="-8"
     inkscape:window-maximized="1"
     inkscape:current-layer="svg2985" />
  <path
     style="fill:#ff0000;fill-opacity:1;stroke:none"
     d="m 324.6,333.6 0,-204 -129.6,0 -129.6,0 0,204 0,204 129.6,0 129.6,0 z m -240,0 0,-184.8 110.4,0 110.4,0 0,184.8 0,184.8 -110.4,0 -110.4,0 z m 211.2,0 0,-174.22529 c 0,0 -67.2,0 -100.8,0 -33.6,0 -100.8,0 -100.8,0 l 0,174.22529 0,172.8 100.8,0 100.8,0 z m -39.6,-241.2 0,-24 -61.2,0 -61.2,0 0,24 0,24 61.2,0 61.2,0 z"
     id="path2995"
     inkscape:connector-curvature="0"
     sodipodi:nodetypes="ccccccccccccccccccccsccccccccccccccc" />
</svg>
